<svg xmlns="http://www.w3.org/2000/svg" width="980" height="560" viewBox="0 0 980 560">
<rect width="100%" height="100%" fill="white"/>
<text x="490.0" y="40" text-anchor="middle" font-family="Arial" font-size="26" font-weight="700">Attribution Distribution (N=266)</text>
<line x1="110" y1="450" x2="940" y2="450" stroke="#222" stroke-width="2"/>
<line x1="110" y1="80" x2="110" y2="450" stroke="#222" stroke-width="2"/>
<line x1="104" y1="450.0" x2="110" y2="450.0" stroke="#222" stroke-width="1"/>
<text x="100" y="455.0" text-anchor="end" font-family="Arial" font-size="12" fill="#444">0.000</text>
<line x1="110" y1="450.0" x2="940" y2="450.0" stroke="#eee" stroke-width="1"/>
<line x1="104" y1="376.0" x2="110" y2="376.0" stroke="#222" stroke-width="1"/>
<text x="100" y="381.0" text-anchor="end" font-family="Arial" font-size="12" fill="#444">0.096</text>
<line x1="110" y1="376.0" x2="940" y2="376.0" stroke="#eee" stroke-width="1"/>
<line x1="104" y1="302.0" x2="110" y2="302.0" stroke="#222" stroke-width="1"/>
<text x="100" y="307.0" text-anchor="end" font-family="Arial" font-size="12" fill="#444">0.192</text>
<line x1="110" y1="302.0" x2="940" y2="302.0" stroke="#eee" stroke-width="1"/>
<line x1="104" y1="228.0" x2="110" y2="228.0" stroke="#222" stroke-width="1"/>
<text x="100" y="233.0" text-anchor="end" font-family="Arial" font-size="12" fill="#444">0.289</text>
<line x1="110" y1="228.0" x2="940" y2="228.0" stroke="#eee" stroke-width="1"/>
<line x1="104" y1="154.0" x2="110" y2="154.0" stroke="#222" stroke-width="1"/>
<text x="100" y="159.0" text-anchor="end" font-family="Arial" font-size="12" fill="#444">0.385</text>
<line x1="110" y1="154.0" x2="940" y2="154.0" stroke="#eee" stroke-width="1"/>
<line x1="104" y1="80.0" x2="110" y2="80.0" stroke="#222" stroke-width="1"/>
<text x="100" y="85.0" text-anchor="end" font-family="Arial" font-size="12" fill="#444">0.481</text>
<line x1="110" y1="80.0" x2="940" y2="80.0" stroke="#eee" stroke-width="1"/>
<text x="28" y="265.0" transform="rotate(-90 28,265.0)" font-family="Arial" font-size="14" fill="#444">Ratio</text>
<rect x="149.7" y="372.0" width="92" height="78.0" fill="#1f77b4" rx="4"/>
<text x="195.7" y="364.0" text-anchor="middle" font-family="Arial" font-size="11" fill="#111">0.102</text>
<text x="195.7" y="470" text-anchor="middle" font-family="Arial" font-size="11" fill="#333" transform="rotate(25 195.7,470)">user_requested</text>
<rect x="281.4" y="80.0" width="92" height="370.0" fill="#1f77b4" rx="4"/>
<text x="327.4" y="72.0" text-anchor="middle" font-family="Arial" font-size="11" fill="#111">0.481</text>
<text x="327.4" y="470" text-anchor="middle" font-family="Arial" font-size="11" fill="#333" transform="rotate(25 327.4,470)">asst_over_impl</text>
<rect x="413.1" y="395.1" width="92" height="54.9" fill="#1f77b4" rx="4"/>
<text x="459.1" y="387.1" text-anchor="middle" font-family="Arial" font-size="11" fill="#111">0.071</text>
<text x="459.1" y="470" text-anchor="middle" font-family="Arial" font-size="11" fill="#333" transform="rotate(25 459.1,470)">asst_hallucinated</text>
<rect x="544.9" y="189.9" width="92" height="260.1" fill="#1f77b4" rx="4"/>
<text x="590.9" y="181.9" text-anchor="middle" font-family="Arial" font-size="11" fill="#111">0.338</text>
<text x="590.9" y="470" text-anchor="middle" font-family="Arial" font-size="11" fill="#333" transform="rotate(25 590.9,470)">inherited_context</text>
<rect x="676.6" y="450.0" width="92" height="0.0" fill="#1f77b4" rx="4"/>
<text x="722.6" y="442.0" text-anchor="middle" font-family="Arial" font-size="11" fill="#111">0.000</text>
<text x="722.6" y="470" text-anchor="middle" font-family="Arial" font-size="11" fill="#333" transform="rotate(25 722.6,470)">mixed</text>
<rect x="808.3" y="444.2" width="92" height="5.8" fill="#1f77b4" rx="4"/>
<text x="854.3" y="436.2" text-anchor="middle" font-family="Arial" font-size="11" fill="#111">0.007</text>
<text x="854.3" y="470" text-anchor="middle" font-family="Arial" font-size="11" fill="#333" transform="rotate(25 854.3,470)">insufficient</text>
</svg>