<svg xmlns="http://www.w3.org/2000/svg" width="980" height="560" viewBox="0 0 980 560">
<rect width="100%" height="100%" fill="white"/>
<text x="490.0" y="40" text-anchor="middle" font-family="Arial" font-size="26" font-weight="700">Risk Emergence Position by Turn Bucket</text>
<line x1="110" y1="450" x2="940" y2="450" stroke="#222" stroke-width="2"/>
<line x1="110" y1="80" x2="110" y2="450" stroke="#222" stroke-width="2"/>
<line x1="104" y1="450.0" x2="110" y2="450.0" stroke="#222" stroke-width="1"/>
<text x="100" y="455.0" text-anchor="end" font-family="Arial" font-size="12" fill="#444">0.000</text>
<line x1="110" y1="450.0" x2="940" y2="450.0" stroke="#eee" stroke-width="1"/>
<line x1="104" y1="376.0" x2="110" y2="376.0" stroke="#222" stroke-width="1"/>
<text x="100" y="381.0" text-anchor="end" font-family="Arial" font-size="12" fill="#444">0.116</text>
<line x1="110" y1="376.0" x2="940" y2="376.0" stroke="#eee" stroke-width="1"/>
<line x1="104" y1="302.0" x2="110" y2="302.0" stroke="#222" stroke-width="1"/>
<text x="100" y="307.0" text-anchor="end" font-family="Arial" font-size="12" fill="#444">0.232</text>
<line x1="110" y1="302.0" x2="940" y2="302.0" stroke="#eee" stroke-width="1"/>
<line x1="104" y1="228.0" x2="110" y2="228.0" stroke="#222" stroke-width="1"/>
<text x="100" y="233.0" text-anchor="end" font-family="Arial" font-size="12" fill="#444">0.348</text>
<line x1="110" y1="228.0" x2="940" y2="228.0" stroke="#eee" stroke-width="1"/>
<line x1="104" y1="154.0" x2="110" y2="154.0" stroke="#222" stroke-width="1"/>
<text x="100" y="159.0" text-anchor="end" font-family="Arial" font-size="12" fill="#444">0.464</text>
<line x1="110" y1="154.0" x2="940" y2="154.0" stroke="#eee" stroke-width="1"/>
<line x1="104" y1="80.0" x2="110" y2="80.0" stroke="#222" stroke-width="1"/>
<text x="100" y="85.0" text-anchor="end" font-family="Arial" font-size="12" fill="#444">0.581</text>
<line x1="110" y1="80.0" x2="940" y2="80.0" stroke="#eee" stroke-width="1"/>
<text x="28" y="265.0" transform="rotate(-90 28,265.0)" font-family="Arial" font-size="14" fill="#444">Probability</text>
<rect x="156.7" y="80.0" width="110" height="370.0" fill="#ff7f0e" rx="4"/>
<text x="211.7" y="72.0" text-anchor="middle" font-family="Arial" font-size="11" fill="#111">0.581</text>
<text x="211.7" y="470" text-anchor="middle" font-family="Arial" font-size="11" fill="#333" transform="rotate(25 211.7,470)">0-1</text>
<rect x="313.3" y="397.5" width="110" height="52.5" fill="#ff7f0e" rx="4"/>
<text x="368.3" y="389.5" text-anchor="middle" font-family="Arial" font-size="11" fill="#111">0.082</text>
<text x="368.3" y="470" text-anchor="middle" font-family="Arial" font-size="11" fill="#333" transform="rotate(25 368.3,470)">2-3</text>
<rect x="470.0" y="358.6" width="110" height="91.4" fill="#ff7f0e" rx="4"/>
<text x="525.0" y="350.6" text-anchor="middle" font-family="Arial" font-size="11" fill="#111">0.143</text>
<text x="525.0" y="470" text-anchor="middle" font-family="Arial" font-size="11" fill="#333" transform="rotate(25 525.0,470)">4-7</text>
<rect x="626.7" y="399.7" width="110" height="50.3" fill="#ff7f0e" rx="4"/>
<text x="681.7" y="391.7" text-anchor="middle" font-family="Arial" font-size="11" fill="#111">0.079</text>
<text x="681.7" y="470" text-anchor="middle" font-family="Arial" font-size="11" fill="#333" transform="rotate(25 681.7,470)">8-15</text>
<rect x="783.3" y="376.9" width="110" height="73.1" fill="#ff7f0e" rx="4"/>
<text x="838.3" y="368.9" text-anchor="middle" font-family="Arial" font-size="11" fill="#111">0.115</text>
<text x="838.3" y="470" text-anchor="middle" font-family="Arial" font-size="11" fill="#333" transform="rotate(25 838.3,470)">16+</text>
</svg>