<svg xmlns="http://www.w3.org/2000/svg" width="1000" height="560" viewBox="0 0 1000 560">
<rect width="100%" height="100%" fill="white"/>
<text x="500" y="38" text-anchor="middle" font-family="Arial" font-size="26" font-weight="700">Temporal Security Degradation Curve</text>
<line x1="80" y1="490" x2="930" y2="490" stroke="#222" stroke-width="2"/>
<line x1="80" y1="70" x2="80" y2="490" stroke="#222" stroke-width="2"/>
<line x1="80" y1="490.00" x2="930" y2="490.00" stroke="#eee" stroke-width="1"/>
<text x="70" y="494.00" text-anchor="end" font-family="Arial" font-size="12" fill="#444">0.0</text>
<line x1="80" y1="406.00" x2="930" y2="406.00" stroke="#eee" stroke-width="1"/>
<text x="70" y="410.00" text-anchor="end" font-family="Arial" font-size="12" fill="#444">0.2</text>
<line x1="80" y1="322.00" x2="930" y2="322.00" stroke="#eee" stroke-width="1"/>
<text x="70" y="326.00" text-anchor="end" font-family="Arial" font-size="12" fill="#444">0.4</text>
<line x1="80" y1="238.00" x2="930" y2="238.00" stroke="#eee" stroke-width="1"/>
<text x="70" y="242.00" text-anchor="end" font-family="Arial" font-size="12" fill="#444">0.6</text>
<line x1="80" y1="154.00" x2="930" y2="154.00" stroke="#eee" stroke-width="1"/>
<text x="70" y="158.00" text-anchor="end" font-family="Arial" font-size="12" fill="#444">0.8</text>
<line x1="80" y1="70.00" x2="930" y2="70.00" stroke="#eee" stroke-width="1"/>
<text x="70" y="74.00" text-anchor="end" font-family="Arial" font-size="12" fill="#444">1.0</text>
<line x1="80.00" y1="70" x2="80.00" y2="490" stroke="#f3f3f3" stroke-width="1"/>
<text x="80.00" y="512" text-anchor="middle" font-family="Arial" font-size="11" fill="#555">0</text>
<line x1="83.92" y1="70" x2="83.92" y2="490" stroke="#f3f3f3" stroke-width="1"/>
<text x="83.92" y="512" text-anchor="middle" font-family="Arial" font-size="11" fill="#555">1</text>
<line x1="91.75" y1="70" x2="91.75" y2="490" stroke="#f3f3f3" stroke-width="1"/>
<text x="91.75" y="512" text-anchor="middle" font-family="Arial" font-size="11" fill="#555">3</text>
<line x1="99.59" y1="70" x2="99.59" y2="490" stroke="#f3f3f3" stroke-width="1"/>
<text x="99.59" y="512" text-anchor="middle" font-family="Arial" font-size="11" fill="#555">5</text>
<line x1="119.17" y1="70" x2="119.17" y2="490" stroke="#f3f3f3" stroke-width="1"/>
<text x="119.17" y="512" text-anchor="middle" font-family="Arial" font-size="11" fill="#555">10</text>
<line x1="158.34" y1="70" x2="158.34" y2="490" stroke="#f3f3f3" stroke-width="1"/>
<text x="158.34" y="512" text-anchor="middle" font-family="Arial" font-size="11" fill="#555">20</text>
<line x1="236.68" y1="70" x2="236.68" y2="490" stroke="#f3f3f3" stroke-width="1"/>
<text x="236.68" y="512" text-anchor="middle" font-family="Arial" font-size="11" fill="#555">40</text>
<line x1="393.36" y1="70" x2="393.36" y2="490" stroke="#f3f3f3" stroke-width="1"/>
<text x="393.36" y="512" text-anchor="middle" font-family="Arial" font-size="11" fill="#555">80</text>
<line x1="550.05" y1="70" x2="550.05" y2="490" stroke="#f3f3f3" stroke-width="1"/>
<text x="550.05" y="512" text-anchor="middle" font-family="Arial" font-size="11" fill="#555">120</text>
<line x1="706.73" y1="70" x2="706.73" y2="490" stroke="#f3f3f3" stroke-width="1"/>
<text x="706.73" y="512" text-anchor="middle" font-family="Arial" font-size="11" fill="#555">160</text>
<line x1="863.41" y1="70" x2="863.41" y2="490" stroke="#f3f3f3" stroke-width="1"/>
<text x="863.41" y="512" text-anchor="middle" font-family="Arial" font-size="11" fill="#555">200</text>
<path d="M 80.00 116.82 L 83.92 238.95 L 87.83 240.39 L 91.75 269.97 L 95.67 272.25 L 99.59 294.33 L 103.50 305.30 L 107.42 318.79 L 111.34 324.31 L 115.25 328.92 L 119.17 337.07 L 123.09 351.35 L 127.00 356.89 L 130.92 362.44 L 134.84 362.44 L 138.76 365.92 L 142.67 367.15 L 146.59 369.60 L 150.51 369.60 L 154.42 373.49 L 158.34 373.49 L 162.26 374.84 L 166.18 377.65 L 170.09 381.86 L 174.01 381.86 L 177.93 384.79 L 181.84 387.88 L 185.76 392.52 L 189.68 392.52 L 193.59 392.52 L 197.51 392.52 L 201.43 392.52 L 205.35 392.52 L 209.26 404.93 L 213.18 404.93 L 217.10 406.74 L 221.01 408.55 L 224.93 410.36 L 228.85 410.36 L 232.76 412.30 L 236.68 412.30 L 240.60 416.19 L 244.52 416.19 L 248.43 418.24 L 252.35 418.24 L 256.27 420.29 L 260.18 420.29 L 264.10 426.82 L 268.02 426.82 L 271.94 426.82 L 275.85 426.82 L 279.77 429.35 L 283.69 429.35 L 287.60 429.35 L 291.52 431.88 L 295.44 431.88 L 299.35 431.88 L 303.27 431.88 L 307.19 431.88 L 311.11 431.88 L 315.02 431.88 L 318.94 431.88 L 322.86 431.88 L 326.77 431.88 L 330.69 431.88 L 334.61 431.88 L 338.53 431.88 L 342.44 431.88 L 346.36 431.88 L 350.28 431.88 L 354.19 431.88 L 358.11 431.88 L 362.03 431.88 L 365.94 431.88 L 369.86 431.88 L 373.78 431.88 L 377.70 431.88 L 381.61 431.88 L 385.53 431.88 L 389.45 431.88 L 393.36 431.88 L 397.28 431.88 L 401.20 434.64 L 405.12 437.41 L 409.03 437.41 L 412.95 440.18 L 416.87 442.95 L 420.78 442.95 L 424.70 442.95 L 428.62 442.95 L 432.53 442.95 L 436.45 442.95 L 440.37 442.95 L 444.29 442.95 L 448.20 442.95 L 452.12 442.95 L 456.04 442.95 L 459.95 442.95 L 463.87 442.95 L 467.79 442.95 L 471.71 442.95 L 475.62 442.95 L 479.54 442.95 L 483.46 442.95 L 487.37 442.95 L 491.29 442.95 L 495.21 442.95 L 499.12 442.95 L 503.04 442.95 L 506.96 442.95 L 510.88 442.95 L 514.79 446.87 L 518.71 446.87 L 522.63 446.87 L 526.54 446.87 L 530.46 446.87 L 534.38 446.87 L 538.29 446.87 L 542.21 446.87 L 546.13 446.87 L 550.05 446.87 L 553.96 446.87 L 557.88 446.87 L 561.80 446.87 L 565.71 446.87 L 569.63 446.87 L 573.55 446.87 L 577.47 446.87 L 581.38 446.87 L 585.30 446.87 L 589.22 446.87 L 593.13 446.87 L 597.05 446.87 L 600.97 446.87 L 604.88 446.87 L 608.80 446.87 L 612.72 446.87 L 616.64 450.79 L 620.55 450.79 L 624.47 450.79 L 628.39 450.79 L 632.30 450.79 L 636.22 450.79 L 640.14 450.79 L 644.06 450.79 L 647.97 450.79 L 651.89 450.79 L 655.81 450.79 L 659.72 450.79 L 663.64 450.79 L 667.56 450.79 L 671.47 450.79 L 675.39 450.79 L 679.31 454.71 L 683.23 454.71 L 687.14 458.63 L 691.06 458.63 L 694.98 458.63 L 698.89 458.63 L 702.81 458.63 L 706.73 458.63 L 710.65 458.63 L 714.56 458.63 L 718.48 458.63 L 722.40 458.63 L 726.31 458.63 L 730.23 458.63 L 734.15 458.63 L 738.06 458.63 L 741.98 458.63 L 745.90 458.63 L 749.82 458.63 L 753.73 458.63 L 757.65 458.63 L 761.57 458.63 L 765.48 458.63 L 769.40 458.63 L 773.32 458.63 L 777.24 458.63 L 781.15 458.63 L 785.07 458.63 L 788.99 458.63 L 792.90 458.63 L 796.82 458.63 L 800.74 458.63 L 804.65 458.63 L 808.57 458.63 L 812.49 458.63 L 816.41 458.63 L 820.32 458.63 L 824.24 458.63 L 828.16 458.63 L 832.07 458.63 L 835.99 458.63 L 839.91 458.63 L 843.82 458.63 L 847.74 458.63 L 851.66 458.63 L 855.58 458.63 L 859.49 458.63 L 863.41 458.63 L 867.33 458.63 L 871.24 458.63 L 875.16 458.63 L 879.08 458.63 L 883.00 458.63 L 886.91 458.63 L 890.83 458.63 L 894.75 458.63 L 898.66 458.63 L 902.58 458.63 L 906.50 458.63 L 910.41 458.63 L 914.33 458.63 L 918.25 458.63 L 922.17 458.63 L 926.08 458.63 L 930.00 490.00" fill="none" stroke="#1f77b4" stroke-width="3"/>
<path d="M 80.00 443.18 L 83.92 321.05 L 87.83 319.69 L 91.75 291.87 L 95.67 289.84 L 99.59 270.16 L 103.50 261.34 L 107.42 250.48 L 111.34 246.41 L 115.25 243.02 L 119.17 237.59 L 123.09 228.09 L 127.00 224.70 L 130.92 221.31 L 134.84 221.31 L 138.76 219.27 L 142.67 218.59 L 146.59 217.24 L 150.51 217.24 L 154.42 215.20 L 158.34 215.20 L 162.26 214.52 L 166.18 213.17 L 170.09 211.13 L 174.01 211.13 L 177.93 209.77 L 181.84 208.42 L 185.76 206.38 L 189.68 206.38 L 193.59 206.38 L 197.51 206.38 L 201.43 206.38 L 205.35 206.38 L 209.26 201.63 L 213.18 201.63 L 217.10 200.95 L 221.01 200.27 L 224.93 199.60 L 228.85 199.60 L 232.76 198.92 L 236.68 198.92 L 240.60 197.56 L 244.52 197.56 L 248.43 196.88 L 252.35 196.88 L 256.27 196.20 L 260.18 196.20 L 264.10 194.17 L 268.02 194.17 L 271.94 194.17 L 275.85 194.17 L 279.77 193.49 L 283.69 193.49 L 287.60 193.49 L 291.52 192.81 L 295.44 192.81 L 299.35 192.81 L 303.27 192.81 L 307.19 192.81 L 311.11 192.81 L 315.02 192.81 L 318.94 192.81 L 322.86 192.81 L 326.77 192.81 L 330.69 192.81 L 334.61 192.81 L 338.53 192.81 L 342.44 192.81 L 346.36 192.81 L 350.28 192.81 L 354.19 192.81 L 358.11 192.81 L 362.03 192.81 L 365.94 192.81 L 369.86 192.81 L 373.78 192.81 L 377.70 192.81 L 381.61 192.81 L 385.53 192.81 L 389.45 192.81 L 393.36 192.81 L 397.28 192.81 L 401.20 192.13 L 405.12 191.45 L 409.03 191.45 L 412.95 190.78 L 416.87 190.10 L 420.78 190.10 L 424.70 190.10 L 428.62 190.10 L 432.53 190.10 L 436.45 190.10 L 440.37 190.10 L 444.29 190.10 L 448.20 190.10 L 452.12 190.10 L 456.04 190.10 L 459.95 190.10 L 463.87 190.10 L 467.79 190.10 L 471.71 190.10 L 475.62 190.10 L 479.54 190.10 L 483.46 190.10 L 487.37 190.10 L 491.29 190.10 L 495.21 190.10 L 499.12 190.10 L 503.04 190.10 L 506.96 190.10 L 510.88 190.10 L 514.79 189.42 L 518.71 189.42 L 522.63 189.42 L 526.54 189.42 L 530.46 189.42 L 534.38 189.42 L 538.29 189.42 L 542.21 189.42 L 546.13 189.42 L 550.05 189.42 L 553.96 189.42 L 557.88 189.42 L 561.80 189.42 L 565.71 189.42 L 569.63 189.42 L 573.55 189.42 L 577.47 189.42 L 581.38 189.42 L 585.30 189.42 L 589.22 189.42 L 593.13 189.42 L 597.05 189.42 L 600.97 189.42 L 604.88 189.42 L 608.80 189.42 L 612.72 189.42 L 616.64 188.74 L 620.55 188.74 L 624.47 188.74 L 628.39 188.74 L 632.30 188.74 L 636.22 188.74 L 640.14 188.74 L 644.06 188.74 L 647.97 188.74 L 651.89 188.74 L 655.81 188.74 L 659.72 188.74 L 663.64 188.74 L 667.56 188.74 L 671.47 188.74 L 675.39 188.74 L 679.31 188.06 L 683.23 188.06 L 687.14 187.38 L 691.06 187.38 L 694.98 187.38 L 698.89 187.38 L 702.81 187.38 L 706.73 187.38 L 710.65 187.38 L 714.56 187.38 L 718.48 187.38 L 722.40 187.38 L 726.31 187.38 L 730.23 187.38 L 734.15 187.38 L 738.06 187.38 L 741.98 187.38 L 745.90 187.38 L 749.82 187.38 L 753.73 187.38 L 757.65 187.38 L 761.57 187.38 L 765.48 187.38 L 769.40 187.38 L 773.32 187.38 L 777.24 187.38 L 781.15 187.38 L 785.07 187.38 L 788.99 187.38 L 792.90 187.38 L 796.82 187.38 L 800.74 187.38 L 804.65 187.38 L 808.57 187.38 L 812.49 187.38 L 816.41 187.38 L 820.32 187.38 L 824.24 187.38 L 828.16 187.38 L 832.07 187.38 L 835.99 187.38 L 839.91 187.38 L 843.82 187.38 L 847.74 187.38 L 851.66 187.38 L 855.58 187.38 L 859.49 187.38 L 863.41 187.38 L 867.33 187.38 L 871.24 187.38 L 875.16 187.38 L 879.08 187.38 L 883.00 187.38 L 886.91 187.38 L 890.83 187.38 L 894.75 187.38 L 898.66 187.38 L 902.58 187.38 L 906.50 187.38 L 910.41 187.38 L 914.33 187.38 L 918.25 187.38 L 922.17 187.38 L 926.08 187.38 L 930.00 186.70" fill="none" stroke="#d62728" stroke-width="3"/>
<rect x="690" y="80" width="14" height="14" fill="#1f77b4"/>
<text x="710" y="92" font-family="Arial" font-size="13">P(remaining secure | turn t)</text>
<rect x="690" y="104" width="14" height="14" fill="#d62728"/>
<text x="710" y="116" font-family="Arial" font-size="13">Cumulative risk probability</text>
<text x="505.00" y="540" text-anchor="middle" font-family="Arial" font-size="14" fill="#444">Turn index</text>
<text x="24" y="280.00" transform="rotate(-90 24,280.00)" font-family="Arial" font-size="14" fill="#444">Probability</text>
</svg>