<svg xmlns="http://www.w3.org/2000/svg" width="1000" height="560" viewBox="0 0 1000 560">
<rect width="100%" height="100%" fill="white"/>
<text x="500" y="38" text-anchor="middle" font-family="Arial" font-size="26" font-weight="700">Temporal Security Degradation Curve</text>
<line x1="80" y1="490" x2="930" y2="490" stroke="#222" stroke-width="2"/>
<line x1="80" y1="70" x2="80" y2="490" stroke="#222" stroke-width="2"/>
<line x1="80" y1="490.00" x2="930" y2="490.00" stroke="#eee" stroke-width="1"/>
<text x="70" y="494.00" text-anchor="end" font-family="Arial" font-size="12" fill="#444">0.0</text>
<line x1="80" y1="406.00" x2="930" y2="406.00" stroke="#eee" stroke-width="1"/>
<text x="70" y="410.00" text-anchor="end" font-family="Arial" font-size="12" fill="#444">0.2</text>
<line x1="80" y1="322.00" x2="930" y2="322.00" stroke="#eee" stroke-width="1"/>
<text x="70" y="326.00" text-anchor="end" font-family="Arial" font-size="12" fill="#444">0.4</text>
<line x1="80" y1="238.00" x2="930" y2="238.00" stroke="#eee" stroke-width="1"/>
<text x="70" y="242.00" text-anchor="end" font-family="Arial" font-size="12" fill="#444">0.6</text>
<line x1="80" y1="154.00" x2="930" y2="154.00" stroke="#eee" stroke-width="1"/>
<text x="70" y="158.00" text-anchor="end" font-family="Arial" font-size="12" fill="#444">0.8</text>
<line x1="80" y1="70.00" x2="930" y2="70.00" stroke="#eee" stroke-width="1"/>
<text x="70" y="74.00" text-anchor="end" font-family="Arial" font-size="12" fill="#444">1.0</text>
<line x1="80.00" y1="70" x2="80.00" y2="490" stroke="#f3f3f3" stroke-width="1"/>
<text x="80.00" y="512" text-anchor="middle" font-family="Arial" font-size="11" fill="#555">0</text>
<line x1="83.92" y1="70" x2="83.92" y2="490" stroke="#f3f3f3" stroke-width="1"/>
<text x="83.92" y="512" text-anchor="middle" font-family="Arial" font-size="11" fill="#555">1</text>
<line x1="91.75" y1="70" x2="91.75" y2="490" stroke="#f3f3f3" stroke-width="1"/>
<text x="91.75" y="512" text-anchor="middle" font-family="Arial" font-size="11" fill="#555">3</text>
<line x1="99.59" y1="70" x2="99.59" y2="490" stroke="#f3f3f3" stroke-width="1"/>
<text x="99.59" y="512" text-anchor="middle" font-family="Arial" font-size="11" fill="#555">5</text>
<line x1="119.17" y1="70" x2="119.17" y2="490" stroke="#f3f3f3" stroke-width="1"/>
<text x="119.17" y="512" text-anchor="middle" font-family="Arial" font-size="11" fill="#555">10</text>
<line x1="158.34" y1="70" x2="158.34" y2="490" stroke="#f3f3f3" stroke-width="1"/>
<text x="158.34" y="512" text-anchor="middle" font-family="Arial" font-size="11" fill="#555">20</text>
<line x1="236.68" y1="70" x2="236.68" y2="490" stroke="#f3f3f3" stroke-width="1"/>
<text x="236.68" y="512" text-anchor="middle" font-family="Arial" font-size="11" fill="#555">40</text>
<line x1="393.36" y1="70" x2="393.36" y2="490" stroke="#f3f3f3" stroke-width="1"/>
<text x="393.36" y="512" text-anchor="middle" font-family="Arial" font-size="11" fill="#555">80</text>
<line x1="550.05" y1="70" x2="550.05" y2="490" stroke="#f3f3f3" stroke-width="1"/>
<text x="550.05" y="512" text-anchor="middle" font-family="Arial" font-size="11" fill="#555">120</text>
<line x1="706.73" y1="70" x2="706.73" y2="490" stroke="#f3f3f3" stroke-width="1"/>
<text x="706.73" y="512" text-anchor="middle" font-family="Arial" font-size="11" fill="#555">160</text>
<line x1="863.41" y1="70" x2="863.41" y2="490" stroke="#f3f3f3" stroke-width="1"/>
<text x="863.41" y="512" text-anchor="middle" font-family="Arial" font-size="11" fill="#555">200</text>
<path d="M 80.00 115.20 L 83.92 248.58 L 87.83 248.58 L 91.75 275.15 L 95.67 278.77 L 99.59 302.91 L 103.50 311.05 L 107.42 325.96 L 111.34 325.96 L 115.25 328.94 L 119.17 330.62 L 123.09 344.04 L 127.00 352.73 L 130.92 357.94 L 134.84 357.94 L 138.76 363.44 L 142.67 363.44 L 146.59 365.33 L 150.51 365.33 L 154.42 371.27 L 158.34 371.27 L 162.26 373.32 L 166.18 373.32 L 170.09 373.32 L 174.01 373.32 L 177.93 377.80 L 181.84 382.58 L 185.76 389.74 L 189.68 389.74 L 193.59 389.74 L 197.51 389.74 L 201.43 389.74 L 205.35 389.74 L 209.26 404.48 L 213.18 404.48 L 217.10 407.54 L 221.01 410.59 L 224.93 413.65 L 228.85 413.65 L 232.76 416.83 L 236.68 416.83 L 240.60 420.01 L 244.52 420.01 L 248.43 420.01 L 252.35 420.01 L 256.27 423.19 L 260.18 423.19 L 264.10 423.19 L 268.02 423.19 L 271.94 423.19 L 275.85 423.19 L 279.77 426.71 L 283.69 426.71 L 287.60 426.71 L 291.52 430.22 L 295.44 430.22 L 299.35 430.22 L 303.27 430.22 L 307.19 430.22 L 311.11 430.22 L 315.02 430.22 L 318.94 430.22 L 322.86 430.22 L 326.77 430.22 L 330.69 430.22 L 334.61 430.22 L 338.53 430.22 L 342.44 430.22 L 346.36 430.22 L 350.28 430.22 L 354.19 430.22 L 358.11 430.22 L 362.03 430.22 L 365.94 430.22 L 369.86 430.22 L 373.78 430.22 L 377.70 430.22 L 381.61 430.22 L 385.53 430.22 L 389.45 430.22 L 393.36 430.22 L 397.28 430.22 L 401.20 430.22 L 405.12 434.21 L 409.03 434.21 L 412.95 434.21 L 416.87 438.19 L 420.78 438.19 L 424.70 438.19 L 428.62 438.19 L 432.53 438.19 L 436.45 438.19 L 440.37 438.19 L 444.29 438.19 L 448.20 438.19 L 452.12 438.19 L 456.04 438.19 L 459.95 438.19 L 463.87 438.19 L 467.79 438.19 L 471.71 438.19 L 475.62 438.19 L 479.54 438.19 L 483.46 438.19 L 487.37 438.19 L 491.29 438.19 L 495.21 438.19 L 499.12 438.19 L 503.04 438.19 L 506.96 438.19 L 510.88 438.19 L 514.79 442.51 L 518.71 442.51 L 522.63 442.51 L 526.54 442.51 L 530.46 442.51 L 534.38 442.51 L 538.29 442.51 L 542.21 442.51 L 546.13 442.51 L 550.05 442.51 L 553.96 442.51 L 557.88 442.51 L 561.80 442.51 L 565.71 442.51 L 569.63 442.51 L 573.55 442.51 L 577.47 442.51 L 581.38 442.51 L 585.30 442.51 L 589.22 442.51 L 593.13 442.51 L 597.05 442.51 L 600.97 442.51 L 604.88 442.51 L 608.80 442.51 L 612.72 442.51 L 616.64 446.83 L 620.55 446.83 L 624.47 446.83 L 628.39 446.83 L 632.30 446.83 L 636.22 446.83 L 640.14 446.83 L 644.06 446.83 L 647.97 446.83 L 651.89 446.83 L 655.81 446.83 L 659.72 446.83 L 663.64 446.83 L 667.56 446.83 L 671.47 446.83 L 675.39 446.83 L 679.31 451.14 L 683.23 451.14 L 687.14 455.46 L 691.06 455.46 L 694.98 455.46 L 698.89 455.46 L 702.81 455.46 L 706.73 455.46 L 710.65 455.46 L 714.56 455.46 L 718.48 455.46 L 722.40 455.46 L 726.31 455.46 L 730.23 455.46 L 734.15 455.46 L 738.06 455.46 L 741.98 455.46 L 745.90 455.46 L 749.82 455.46 L 753.73 455.46 L 757.65 455.46 L 761.57 455.46 L 765.48 455.46 L 769.40 455.46 L 773.32 455.46 L 777.24 455.46 L 781.15 455.46 L 785.07 455.46 L 788.99 455.46 L 792.90 455.46 L 796.82 455.46 L 800.74 455.46 L 804.65 455.46 L 808.57 455.46 L 812.49 455.46 L 816.41 455.46 L 820.32 455.46 L 824.24 455.46 L 828.16 455.46 L 832.07 455.46 L 835.99 455.46 L 839.91 455.46 L 843.82 455.46 L 847.74 455.46 L 851.66 455.46 L 855.58 455.46 L 859.49 455.46 L 863.41 455.46 L 867.33 455.46 L 871.24 455.46 L 875.16 455.46 L 879.08 455.46 L 883.00 455.46 L 886.91 455.46 L 890.83 455.46 L 894.75 455.46 L 898.66 455.46 L 902.58 455.46 L 906.50 455.46 L 910.41 455.46 L 914.33 455.46 L 918.25 455.46 L 922.17 455.46 L 926.08 455.46 L 930.00 490.00" fill="none" stroke="#1f77b4" stroke-width="3"/>
<path d="M 80.00 444.80 L 83.92 311.42 L 87.83 311.42 L 91.75 286.06 L 95.67 282.76 L 99.59 260.71 L 103.50 254.09 L 107.42 241.97 L 111.34 241.97 L 115.25 239.76 L 119.17 238.66 L 123.09 229.84 L 127.00 224.33 L 130.92 221.02 L 134.84 221.02 L 138.76 217.72 L 142.67 217.72 L 146.59 216.61 L 150.51 216.61 L 154.42 213.31 L 158.34 213.31 L 162.26 212.20 L 166.18 212.20 L 170.09 212.20 L 174.01 212.20 L 177.93 210.00 L 181.84 207.80 L 185.76 204.49 L 189.68 204.49 L 193.59 204.49 L 197.51 204.49 L 201.43 204.49 L 205.35 204.49 L 209.26 198.98 L 213.18 198.98 L 217.10 197.87 L 221.01 196.77 L 224.93 195.67 L 228.85 195.67 L 232.76 194.57 L 236.68 194.57 L 240.60 193.46 L 244.52 193.46 L 248.43 193.46 L 252.35 193.46 L 256.27 192.36 L 260.18 192.36 L 264.10 192.36 L 268.02 192.36 L 271.94 192.36 L 275.85 192.36 L 279.77 191.26 L 283.69 191.26 L 287.60 191.26 L 291.52 190.16 L 295.44 190.16 L 299.35 190.16 L 303.27 190.16 L 307.19 190.16 L 311.11 190.16 L 315.02 190.16 L 318.94 190.16 L 322.86 190.16 L 326.77 190.16 L 330.69 190.16 L 334.61 190.16 L 338.53 190.16 L 342.44 190.16 L 346.36 190.16 L 350.28 190.16 L 354.19 190.16 L 358.11 190.16 L 362.03 190.16 L 365.94 190.16 L 369.86 190.16 L 373.78 190.16 L 377.70 190.16 L 381.61 190.16 L 385.53 190.16 L 389.45 190.16 L 393.36 190.16 L 397.28 190.16 L 401.20 190.16 L 405.12 189.06 L 409.03 189.06 L 412.95 189.06 L 416.87 187.95 L 420.78 187.95 L 424.70 187.95 L 428.62 187.95 L 432.53 187.95 L 436.45 187.95 L 440.37 187.95 L 444.29 187.95 L 448.20 187.95 L 452.12 187.95 L 456.04 187.95 L 459.95 187.95 L 463.87 187.95 L 467.79 187.95 L 471.71 187.95 L 475.62 187.95 L 479.54 187.95 L 483.46 187.95 L 487.37 187.95 L 491.29 187.95 L 495.21 187.95 L 499.12 187.95 L 503.04 187.95 L 506.96 187.95 L 510.88 187.95 L 514.79 186.85 L 518.71 186.85 L 522.63 186.85 L 526.54 186.85 L 530.46 186.85 L 534.38 186.85 L 538.29 186.85 L 542.21 186.85 L 546.13 186.85 L 550.05 186.85 L 553.96 186.85 L 557.88 186.85 L 561.80 186.85 L 565.71 186.85 L 569.63 186.85 L 573.55 186.85 L 577.47 186.85 L 581.38 186.85 L 585.30 186.85 L 589.22 186.85 L 593.13 186.85 L 597.05 186.85 L 600.97 186.85 L 604.88 186.85 L 608.80 186.85 L 612.72 186.85 L 616.64 185.75 L 620.55 185.75 L 624.47 185.75 L 628.39 185.75 L 632.30 185.75 L 636.22 185.75 L 640.14 185.75 L 644.06 185.75 L 647.97 185.75 L 651.89 185.75 L 655.81 185.75 L 659.72 185.75 L 663.64 185.75 L 667.56 185.75 L 671.47 185.75 L 675.39 185.75 L 679.31 184.65 L 683.23 184.65 L 687.14 183.54 L 691.06 183.54 L 694.98 183.54 L 698.89 183.54 L 702.81 183.54 L 706.73 183.54 L 710.65 183.54 L 714.56 183.54 L 718.48 183.54 L 722.40 183.54 L 726.31 183.54 L 730.23 183.54 L 734.15 183.54 L 738.06 183.54 L 741.98 183.54 L 745.90 183.54 L 749.82 183.54 L 753.73 183.54 L 757.65 183.54 L 761.57 183.54 L 765.48 183.54 L 769.40 183.54 L 773.32 183.54 L 777.24 183.54 L 781.15 183.54 L 785.07 183.54 L 788.99 183.54 L 792.90 183.54 L 796.82 183.54 L 800.74 183.54 L 804.65 183.54 L 808.57 183.54 L 812.49 183.54 L 816.41 183.54 L 820.32 183.54 L 824.24 183.54 L 828.16 183.54 L 832.07 183.54 L 835.99 183.54 L 839.91 183.54 L 843.82 183.54 L 847.74 183.54 L 851.66 183.54 L 855.58 183.54 L 859.49 183.54 L 863.41 183.54 L 867.33 183.54 L 871.24 183.54 L 875.16 183.54 L 879.08 183.54 L 883.00 183.54 L 886.91 183.54 L 890.83 183.54 L 894.75 183.54 L 898.66 183.54 L 902.58 183.54 L 906.50 183.54 L 910.41 183.54 L 914.33 183.54 L 918.25 183.54 L 922.17 183.54 L 926.08 183.54 L 930.00 182.44" fill="none" stroke="#d62728" stroke-width="3"/>
<rect x="690" y="80" width="14" height="14" fill="#1f77b4"/>
<text x="710" y="92" font-family="Arial" font-size="13">P(remaining secure | turn t)</text>
<rect x="690" y="104" width="14" height="14" fill="#d62728"/>
<text x="710" y="116" font-family="Arial" font-size="13">Cumulative risk probability</text>
<text x="505.00" y="540" text-anchor="middle" font-family="Arial" font-size="14" fill="#444">Turn index</text>
<text x="24" y="280.00" transform="rotate(-90 24,280.00)" font-family="Arial" font-size="14" fill="#444">Probability</text>
</svg>