<svg xmlns="http://www.w3.org/2000/svg" width="1180" height="640" viewBox="0 0 1180 640">
<rect width="100%" height="100%" fill="white"/>
<text x="590" y="38" text-anchor="middle" font-family="Arial" font-size="26" font-weight="700">Attribution Source by CWE (Dominant-Source Split)</text>
<rect x="40" y="70" width="540" height="500" fill="white" stroke="#ddd"/>
<text x="310.0" y="98" text-anchor="middle" font-family="Arial" font-size="18" font-weight="700">Assistant-Driven Dominant CWE</text>
<line x1="160" y1="525" x2="550" y2="525" stroke="#222" stroke-width="1.5"/>
<line x1="160" y1="125" x2="160" y2="525" stroke="#222" stroke-width="1.5"/>
<line x1="160.00" y1="125" x2="160.00" y2="525" stroke="#f0f0f0" stroke-width="1"/>
<text x="160.00" y="543" text-anchor="middle" font-family="Arial" font-size="11" fill="#555">0.0</text>
<line x1="238.00" y1="125" x2="238.00" y2="525" stroke="#f0f0f0" stroke-width="1"/>
<text x="238.00" y="543" text-anchor="middle" font-family="Arial" font-size="11" fill="#555">0.2</text>
<line x1="316.00" y1="125" x2="316.00" y2="525" stroke="#f0f0f0" stroke-width="1"/>
<text x="316.00" y="543" text-anchor="middle" font-family="Arial" font-size="11" fill="#555">0.4</text>
<line x1="394.00" y1="125" x2="394.00" y2="525" stroke="#f0f0f0" stroke-width="1"/>
<text x="394.00" y="543" text-anchor="middle" font-family="Arial" font-size="11" fill="#555">0.6</text>
<line x1="472.00" y1="125" x2="472.00" y2="525" stroke="#f0f0f0" stroke-width="1"/>
<text x="472.00" y="543" text-anchor="middle" font-family="Arial" font-size="11" fill="#555">0.8</text>
<line x1="550.00" y1="125" x2="550.00" y2="525" stroke="#f0f0f0" stroke-width="1"/>
<text x="550.00" y="543" text-anchor="middle" font-family="Arial" font-size="11" fill="#555">1.0</text>
<text x="152" y="157.57" text-anchor="end" font-family="Arial" font-size="12" fill="#333">CWE-459 (n=32)</text>
<rect x="160" y="136.43" width="390.00" height="34.29" fill="#1f77b4" rx="3"/>
<text x="556.00" y="157.57" font-family="Arial" font-size="11" fill="#111">1.000</text>
<text x="152" y="214.71" text-anchor="end" font-family="Arial" font-size="12" fill="#333">CWE-306 (n=13)</text>
<rect x="160" y="193.57" width="360.01" height="34.29" fill="#1f77b4" rx="3"/>
<text x="526.01" y="214.71" font-family="Arial" font-size="11" fill="#111">0.923</text>
<text x="152" y="271.86" text-anchor="end" font-family="Arial" font-size="12" fill="#333">CWE-200 (n=20)</text>
<rect x="160" y="250.71" width="312.00" height="34.29" fill="#1f77b4" rx="3"/>
<text x="478.00" y="271.86" font-family="Arial" font-size="11" fill="#111">0.800</text>
<text x="152" y="329.00" text-anchor="end" font-family="Arial" font-size="12" fill="#333">CWE-321 (n=8)</text>
<rect x="160" y="307.86" width="292.50" height="34.29" fill="#1f77b4" rx="3"/>
<text x="458.50" y="329.00" font-family="Arial" font-size="11" fill="#111">0.750</text>
<text x="152" y="386.14" text-anchor="end" font-family="Arial" font-size="12" fill="#333">CWE-20 (n=14)</text>
<rect x="160" y="365.00" width="278.58" height="34.29" fill="#1f77b4" rx="3"/>
<text x="444.58" y="386.14" font-family="Arial" font-size="11" fill="#111">0.714</text>
<text x="152" y="443.29" text-anchor="end" font-family="Arial" font-size="12" fill="#333">CWE-522 (n=23)</text>
<rect x="160" y="422.14" width="271.32" height="34.29" fill="#1f77b4" rx="3"/>
<text x="437.32" y="443.29" font-family="Arial" font-size="11" fill="#111">0.696</text>
<text x="152" y="500.43" text-anchor="end" font-family="Arial" font-size="12" fill="#333">CWE-79 (n=59)</text>
<rect x="160" y="479.29" width="204.91" height="34.29" fill="#1f77b4" rx="3"/>
<text x="370.91" y="500.43" font-family="Arial" font-size="11" fill="#111">0.525</text>
<text x="355.00" y="561" text-anchor="middle" font-family="Arial" font-size="12" fill="#444">assistant-driven ratio</text>
<rect x="610" y="70" width="540" height="500" fill="white" stroke="#ddd"/>
<text x="880.0" y="98" text-anchor="middle" font-family="Arial" font-size="18" font-weight="700">User-Driven Dominant CWE</text>
<line x1="730" y1="525" x2="1120" y2="525" stroke="#222" stroke-width="1.5"/>
<line x1="730" y1="125" x2="730" y2="525" stroke="#222" stroke-width="1.5"/>
<line x1="730.00" y1="125" x2="730.00" y2="525" stroke="#f0f0f0" stroke-width="1"/>
<text x="730.00" y="543" text-anchor="middle" font-family="Arial" font-size="11" fill="#555">0.0</text>
<line x1="808.00" y1="125" x2="808.00" y2="525" stroke="#f0f0f0" stroke-width="1"/>
<text x="808.00" y="543" text-anchor="middle" font-family="Arial" font-size="11" fill="#555">0.2</text>
<line x1="886.00" y1="125" x2="886.00" y2="525" stroke="#f0f0f0" stroke-width="1"/>
<text x="886.00" y="543" text-anchor="middle" font-family="Arial" font-size="11" fill="#555">0.4</text>
<line x1="964.00" y1="125" x2="964.00" y2="525" stroke="#f0f0f0" stroke-width="1"/>
<text x="964.00" y="543" text-anchor="middle" font-family="Arial" font-size="11" fill="#555">0.6</text>
<line x1="1042.00" y1="125" x2="1042.00" y2="525" stroke="#f0f0f0" stroke-width="1"/>
<text x="1042.00" y="543" text-anchor="middle" font-family="Arial" font-size="11" fill="#555">0.8</text>
<line x1="1120.00" y1="125" x2="1120.00" y2="525" stroke="#f0f0f0" stroke-width="1"/>
<text x="1120.00" y="543" text-anchor="middle" font-family="Arial" font-size="11" fill="#555">1.0</text>
<text x="722" y="195.67" text-anchor="end" font-family="Arial" font-size="12" fill="#333">CWE-UNKNOWN (n=44)</text>
<rect x="730" y="151.67" width="230.45" height="80.00" fill="#2ca02c" rx="3"/>
<text x="966.45" y="195.67" font-family="Arial" font-size="11" fill="#111">0.591</text>
<text x="722" y="329.00" text-anchor="end" font-family="Arial" font-size="12" fill="#333">CWE-312 (n=110)</text>
<rect x="730" y="285.00" width="223.35" height="80.00" fill="#2ca02c" rx="3"/>
<text x="959.35" y="329.00" font-family="Arial" font-size="11" fill="#111">0.573</text>
<text x="722" y="462.33" text-anchor="end" font-family="Arial" font-size="12" fill="#333">CWE-327 (n=32)</text>
<rect x="730" y="418.33" width="219.38" height="80.00" fill="#2ca02c" rx="3"/>
<text x="955.38" y="462.33" font-family="Arial" font-size="11" fill="#111">0.562</text>
<text x="925.00" y="561" text-anchor="middle" font-family="Arial" font-size="12" fill="#444">user-driven ratio</text>
</svg>